<svg width="468" height="148" viewBox="0 0 468 148" fill="none" xmlns="http://www.w3.org/2000/svg">
<g clip-path="url(#clip0_2940_3967)">
<path d="M131 0H0V152H131V0Z" fill="#5A2F8D"/>
<path d="M0.287827 115.642V73.7114L68.6852 0H74.004L74.6717 97.3451L131 35.3285V78.7924L68.9455 151.987H51.4954L51.716 55.4084L0.287827 115.642Z" fill="url(#paint0_linear_2940_3967)"/>
<path d="M171.648 133.678C171.504 130.053 169.292 129.383 167.41 129.383C165.485 129.383 163.172 130.104 163.172 133.974V144.359C163.172 144.791 162.935 145.036 162.497 145.036H159.416C158.985 145.036 158.74 144.798 158.74 144.359V133.974C158.74 128.086 162.54 125.138 167.403 125.138C170.053 125.138 172.503 126.198 173.853 128.129C175.153 126.198 177.653 125.138 180.303 125.138C185.166 125.138 188.966 128.086 188.966 133.974V144.359C188.966 144.791 188.722 145.036 188.291 145.036H185.209C184.778 145.036 184.534 144.798 184.534 144.359V133.974C184.534 130.111 182.221 129.383 180.296 129.383C178.371 129.383 176.209 130.06 176.058 133.678V144.351C176.058 144.784 175.821 145.029 175.383 145.029H172.302C171.871 145.029 171.626 144.791 171.626 144.351V133.678H171.648Z" fill="#5A2F8D"/>
<path d="M204.036 145.605C198.405 145.605 194.023 142.081 194.023 135.372C194.023 128.662 198.405 125.138 204.036 125.138C209.667 125.138 214.049 128.662 214.049 135.372C214.049 142.081 209.667 145.605 204.036 145.605ZM204.036 129.383C201.579 129.383 198.455 130.543 198.455 135.372C198.455 140.2 201.579 141.361 204.036 141.361C206.493 141.361 209.617 140.2 209.617 135.372C209.617 130.543 206.493 129.383 204.036 129.383Z" fill="#5A2F8D"/>
<path d="M223.767 134.787V144.351C223.767 144.783 223.53 145.028 223.092 145.028H220.011C219.58 145.028 219.336 144.79 219.336 144.351V134.787C219.336 128.366 223.43 125.13 228.767 125.13C234.104 125.13 238.198 128.366 238.198 134.787V144.351C238.198 144.783 237.961 145.028 237.523 145.028H234.441C234.01 145.028 233.766 144.79 233.766 144.351V134.787C233.766 130.348 230.929 129.382 228.76 129.382C226.59 129.382 223.767 130.348 223.767 134.787Z" fill="#5A2F8D"/>
<path d="M263.28 135.516C263.28 135.905 262.943 136.193 262.562 136.193H247.693C248.081 140.344 250.969 141.36 253.274 141.36C254.575 141.36 256.069 141.072 257.175 139.962C257.512 139.724 257.893 139.573 258.281 139.768L261.118 141.022C261.456 141.166 261.599 141.555 261.355 141.894C259.574 144.358 256.737 145.612 253.267 145.612C247.636 145.612 243.254 142.088 243.254 135.379C243.254 128.669 247.636 125.145 253.267 125.145C258.899 125.145 263.28 128.669 263.28 135.379V135.516ZM258.511 132.957C257.642 130.154 255.235 129.383 253.267 129.383C251.299 129.383 248.886 130.154 248.024 132.957H258.511Z" fill="#5A2F8D"/>
<path d="M270.787 157.922C270.399 157.778 270.305 157.49 270.449 157.05L275.693 145.029L267.418 126.342C267.274 126.004 267.468 125.715 267.806 125.715H271.368C271.799 125.715 272.137 125.91 272.281 126.342L278.106 139.913L283.974 126.342C284.168 125.91 284.506 125.715 284.937 125.715H288.399C288.737 125.715 288.931 126.004 288.787 126.342L274.586 158.549C274.349 158.982 274.055 159.083 273.674 158.939L270.787 157.922Z" fill="#5A2F8D"/>
<path d="M316.599 144.35C316.599 144.783 316.362 145.028 315.924 145.028H312.842C312.411 145.028 312.167 144.79 312.167 144.35V129.959H307.067C306.636 129.959 306.392 129.721 306.392 129.281V126.384C306.392 125.952 306.629 125.707 307.067 125.707H312.167V118.175C312.167 117.743 312.404 117.498 312.842 117.498H315.924C316.355 117.498 316.599 117.736 316.599 118.175V125.707H321.699C322.13 125.707 322.374 125.944 322.374 126.384V129.281C322.374 129.714 322.137 129.959 321.699 129.959H316.599V144.35Z" fill="#5A2F8D"/>
<path d="M337.343 129.24C337.293 129.629 336.955 129.917 336.575 129.773C335.756 129.629 334.987 129.535 334.219 129.535C332.1 129.535 330.175 130.307 330.175 133.398V144.36C330.175 144.792 329.938 145.037 329.499 145.037H326.418C325.987 145.037 325.743 144.799 325.743 144.36V133.398C325.743 127.409 329.305 125.24 333.73 125.24C334.887 125.24 336.086 125.384 337.293 125.723C337.681 125.867 337.968 126.206 337.824 126.595L337.343 129.24Z" fill="#5A2F8D"/>
<path d="M360.831 144.351C360.831 144.784 360.594 145.029 360.156 145.029H357.075C356.644 145.029 356.399 144.791 356.399 144.351V142.42C354.762 144.978 351.731 145.555 349.856 145.555C343.887 145.555 340.619 140.726 340.619 135.508C340.619 128.986 345.144 125.124 350.825 125.124C356.457 125.124 360.838 128.597 360.838 135.552V144.351H360.831ZM350.818 129.383C348.362 129.383 345.094 130.831 345.094 135.372C345.094 139.811 347.787 141.36 350.244 141.505C352.65 141.649 356.407 140.301 356.407 135.516C356.399 130.543 353.275 129.383 350.818 129.383Z" fill="#5A2F8D"/>
<path d="M371.031 134.787V144.351C371.031 144.783 370.794 145.028 370.356 145.028H367.274C366.843 145.028 366.599 144.79 366.599 144.351V134.787C366.599 128.366 370.686 125.13 376.03 125.13C381.374 125.13 385.461 128.366 385.461 134.787V144.351C385.461 144.783 385.224 145.028 384.786 145.028H381.705C381.274 145.028 381.03 144.79 381.03 144.351V134.787C381.03 130.348 378.192 129.382 376.023 129.382C373.854 129.382 371.031 130.348 371.031 134.787Z" fill="#5A2F8D"/>
<path d="M394.706 139.378C395.094 139.284 395.381 139.429 395.618 139.861C396.337 140.971 397.931 141.454 399.274 141.454C401.149 141.454 402.931 140.683 402.931 139.328C402.931 135.753 391.237 139.378 391.237 131.552C391.237 126.817 395.281 125.13 399.274 125.13C402.55 125.13 405.818 126.24 406.975 129.865C407.118 130.204 406.881 130.543 406.493 130.687L403.943 131.314C403.606 131.407 403.318 131.263 403.074 130.881C402.356 129.577 400.761 129.289 399.274 129.289C397.443 129.289 395.618 129.822 395.618 131.415C395.618 134.939 407.312 131.321 407.312 139.335C407.312 144.019 403.124 145.612 399.274 145.612C395.999 145.612 392.443 144.502 391.524 140.877C391.431 140.445 391.617 140.2 392.056 140.056L394.706 139.378Z" fill="#5A2F8D"/>
<path d="M419.537 118.227V125.715H425.312C425.743 125.715 425.988 125.953 425.988 126.393V129.29C425.988 129.722 425.75 129.967 425.312 129.967H419.537V144.359C419.537 144.791 419.3 145.036 418.862 145.036H415.781C415.35 145.036 415.105 144.799 415.105 144.359V129.967H411.83C411.399 129.967 411.155 129.729 411.155 129.29V126.393C411.155 125.96 411.392 125.715 411.83 125.715H415.105V118.227C415.105 112.721 418.618 110.84 422.374 110.84C424.443 110.84 426.418 111.518 428.099 113.06C428.437 113.399 428.437 113.737 428.193 114.076L426.842 116.008C426.648 116.346 426.268 116.346 425.93 116.152C424.917 115.431 423.861 115.092 422.755 115.092C421.369 115.092 419.537 115.719 419.537 118.227Z" fill="#5A2F8D"/>
<path d="M450.294 135.516C450.294 135.905 449.957 136.193 449.576 136.193H434.708C435.095 140.344 437.983 141.36 440.289 141.36C441.589 141.36 443.083 141.072 444.189 139.962C444.527 139.724 444.907 139.573 445.295 139.768L448.132 141.022C448.47 141.166 448.614 141.555 448.369 141.894C446.588 144.358 443.751 145.612 440.282 145.612C434.65 145.612 430.269 142.088 430.269 135.379C430.269 128.669 434.65 125.145 440.282 125.145C445.913 125.145 450.294 128.669 450.294 135.379V135.516ZM445.525 132.957C444.656 130.154 442.25 129.383 440.282 129.383C438.313 129.383 435.9 130.154 435.038 132.957H445.525Z" fill="#5A2F8D"/>
<path d="M467.181 129.24C467.131 129.629 466.793 129.917 466.413 129.773C465.594 129.629 464.825 129.535 464.057 129.535C461.938 129.535 460.013 130.307 460.013 133.398V144.36C460.013 144.792 459.776 145.037 459.337 145.037H456.256C455.825 145.037 455.581 144.799 455.581 144.36V133.398C455.581 127.409 459.144 125.24 463.568 125.24C464.725 125.24 465.924 125.384 467.131 125.723C467.519 125.867 467.806 126.206 467.662 126.595L467.181 129.24Z" fill="#5A2F8D"/>
<path d="M176.29 97.7061H158.74V50.6038C158.74 24.5403 179.702 3.50146 205.687 3.50146C231.664 3.50146 252.633 24.5331 252.633 50.6038V97.7061H235.084V50.6038C235.084 34.3742 221.87 21.1092 205.687 21.1092C189.504 21.1092 176.29 34.3671 176.29 50.6038V97.7061ZM266.298 50.6038C266.298 24.77 287.26 3.50146 313.244 3.50146C339.221 3.50146 360.19 24.7628 360.19 50.6038C360.19 53.8052 359.732 56.7769 359.282 59.5189H285.213C288.862 71.4058 300.023 80.0984 313.244 80.0984C321.45 80.0984 328.74 76.6673 334.206 71.4129H355.397C347.878 86.9606 331.695 97.7061 313.237 97.7061C287.267 97.7061 266.298 76.6744 266.298 50.6038ZM285.213 41.9184H341.274C337.404 30.0315 326.236 21.3389 313.244 21.3389C300.023 21.3389 288.855 30.0315 285.213 41.9184ZM467.74 50.6038C467.74 76.4376 446.778 97.7061 420.794 97.7061C394.817 97.7061 373.848 76.4447 373.848 50.6038C373.848 24.5403 394.81 3.50146 420.794 3.50146C446.778 3.50864 467.74 24.5403 467.74 50.6038ZM450.191 50.6038C450.191 34.3742 436.977 21.1092 420.794 21.1092C404.611 21.1092 391.397 34.3671 391.397 50.6038C391.397 66.8405 404.611 79.8687 420.794 79.8687C436.977 79.8758 450.191 66.8405 450.191 50.6038Z" fill="url(#paint1_linear_2940_3967)"/>
</g>
<defs>
<linearGradient id="paint0_linear_2940_3967" x1="20.0893" y1="129.196" x2="106.439" y2="30.7396" gradientUnits="userSpaceOnUse">
<stop stop-color="#FFAA32"/>
<stop offset="0.3443" stop-color="#FD9143"/>
<stop offset="0.6236" stop-color="#F7536E"/>
<stop offset="1" stop-color="#F53D7D"/>
</linearGradient>
<linearGradient id="paint1_linear_2940_3967" x1="166.063" y1="12.9295" x2="462.563" y2="100.217" gradientUnits="userSpaceOnUse">
<stop stop-color="#FFAA32"/>
<stop offset="0.3443" stop-color="#FD9143"/>
<stop offset="0.6236" stop-color="#F7536E"/>
<stop offset="1" stop-color="#F53D7D"/>
</linearGradient>
<clipPath id="clip0_2940_3967">
<rect width="468" height="148" fill="white"/>
</clipPath>
</defs>
</svg>
